HIERARCHY
ROOT Hips
{
  OFFSET 0 0 0
  CHANNELS 6 Xposition Yposition Zposition Zrotation Xrotation Yrotation
  JOINT Spine
  {
    OFFSET 0.00000000 0.00000000 0.00000000
    CHANNELS 3 Zrotation Xrotation Yrotation
    JOINT Spine1
    {
      OFFSET 0.19000000 0.00000000 0.00000000
      CHANNELS 3 Zrotation Xrotation Yrotation
      JOINT Neck
      {
        OFFSET 0.22500000 0.00600000 0.00000000
        CHANNELS 3 Zrotation Xrotation Yrotation
        JOINT Head
        {
          OFFSET 0.14000000 0.00030878 0.00000000
          CHANNELS 3 Zrotation Xrotation Yrotation
          End Site
          {
            OFFSET 0.17000000 0.00000000 0.00000000
          }
        }
      }
      JOINT LeftShoulder
      {
        OFFSET 0.19800000 0.03700000 0.04300000
        CHANNELS 3 Zrotation Xrotation Yrotation
        JOINT LeftArm
        {
          OFFSET 0.08000000 0.00000000 0.00000000
          CHANNELS 3 Zrotation Xrotation Yrotation
          JOINT LeftForeArm
          {
            OFFSET 0.15200000 0.00000000 0.00000000
            CHANNELS 3 Zrotation Xrotation Yrotation
            JOINT LeftHand
            {
              OFFSET 0.17800000 0.00000000 0.00000000
              CHANNELS 3 Zrotation Xrotation Yrotation
              End Site
              {
                OFFSET 0.07200000 0.00000000 0.00000000
              }
            }
          }
        }
      }
      JOINT RightShoulder
      {
        OFFSET 0.19800000 0.03700000 -0.04300000
        CHANNELS 3 Zrotation Xrotation Yrotation
        JOINT RightArm
        {
          OFFSET 0.08000000 0.00000000 0.00151654
          CHANNELS 3 Zrotation Xrotation Yrotation
          JOINT RightForeArm
          {
            OFFSET 0.15200000 0.00000000 0.00000000
            CHANNELS 3 Zrotation Xrotation Yrotation
            JOINT RightHand
            {
              OFFSET 0.17800000 0.00000000 0.00000000
              CHANNELS 3 Zrotation Xrotation Yrotation
              End Site
              {
                OFFSET 0.07200000 0.00000000 0.00000000
              }
            }
          }
        }
      }
    }
  }
  JOINT LeftUpLeg
  {
    OFFSET 0.05984250 -0.07666000 0.04788790
    CHANNELS 3 Zrotation Xrotation Yrotation
    JOINT LeftLeg
    {
      OFFSET 0.16000000 0.00000000 0.00000000
      CHANNELS 3 Zrotation Xrotation Yrotation
      JOINT LeftFoot
      {
        OFFSET 0.18000000 0.00000000 0.00000000
        CHANNELS 3 Zrotation Xrotation Yrotation
        End Site
        {
          OFFSET 0.00000000 -0.10800000 0.00000000
        }
      }
    }
  }
  JOINT RightUpLeg
  {
    OFFSET 0.05984250 -0.07665980 -0.04788790
    CHANNELS 3 Zrotation Xrotation Yrotation
    JOINT RightLeg
    {
      OFFSET 0.16000000 0.00000000 0.00000000
      CHANNELS 3 Zrotation Xrotation Yrotation
      JOINT RightFoot
      {
        OFFSET 0.18000000 0.00000000 0.00000000
        CHANNELS 3 Zrotation Xrotation Yrotation
        End Site
        {
          OFFSET 0.00000000 -0.10800000 0.00000000
        }
      }
    }
  }
  JOINT Tail
  {
    OFFSET 0.06836960 -0.00722574 0.00000000
    CHANNELS 3 Zrotation Xrotation Yrotation
    JOINT Tail1
    {
      OFFSET 0.12000000 0.00000000 0.00000000
      CHANNELS 3 Zrotation Xrotation Yrotation
      End Site
      {
        OFFSET 0.12000000 0.00000000 0.00000000
      }
    }
  }
}
MOTION
Frames:	15
Frame Time:	0.0166667
-1.3759611 0.4367950 0.3900053 -0.42330 -1.34087 34.3915 -176.313 -0.957405 4.83588 3.07054 -2.64543 6.06755 -6.44521 -5.90731 3.47465 -106.223 70.4323 115.026 -113.342 -41.9562 -135.793 122.305 -16.7932 -129.407 -1.98303 -71.3869 99.9967 30.4902 -0.842298 -49.2986 77.6495 -23.7534 36.1844 47.5261 -45.8857 -38.7375 -73.6144 -16.0827 -5.05302 -22.5927 -4.12447 17.9956 -120.314 -4.94714 -11.2592 83.6336 23.2293 6.02934 27.1135 -4.7556 -9.15026 -138.671 1.3529 2.73922 109.463 -10.9778 -4.57964 24.7662 -1.26662 -2.01538 0.317314 6.90367 -54.1438 17.7913 -9.81103 -28.4527 
-1.4013456 0.4414550 0.4043450 -1.96808 0.25469 36.4248 -174.224 0.0889402 6.19041 1.21595 -2.24625 7.68783 -6.16674 -4.21872 2.53752 -109.704 71.0256 117.015 -113.758 -43.0939 -134.891 119.618 -9.11755 -126.119 -45.828 -66.7785 56.4799 29.3412 1.10532 -31.7795 78.6424 -22.0665 34.7092 47.8749 -48.4103 -36.7605 -70.3427 -16.6179 -5.13683 -23.6411 -3.92475 17.2747 -117.058 -2.2735 -12.8977 83.5987 23.1249 4.62839 31.857 -4.88628 -9.04724 -141.655 4.39948 3.55095 105.488 -10.4466 -5.17679 25.237 -1.22932 -1.95805 0.633728 5.52623 -53.81 17.6375 -11.328 -33.6647 
-1.4299622 0.4485880 0.4194869 -2.75627 2.12395 37.2918 -173.205 0.804112 5.51091 0.267672 -2.04261 10.4602 -6.41055 -2.47556 1.02102 -112.896 71.0305 119.608 -113.485 -43.6215 -133.459 116.878 -3.62133 -122.7 -69.0843 -49.2478 31.036 20.7426 2.52318 -12.8483 79.138 -21.0194 33.0303 48.2269 -49.8134 -35.7391 -65.9417 -17.0037 -4.51077 -23.5564 -3.37348 15.6971 -113.467 -0.477417 -14.9691 81.1748 22.0683 4.2146 37.9259 -4.97068 -8.8706 -143.023 6.7265 3.73187 97.9295 -10.1839 -6.26709 29.2086 -0.890273 -1.64823 -0.249544 4.99481 -50.4123 16.5119 -11.2967 -35.9706 
-1.4610602 0.4570310 0.4351729 -2.75498 4.41387 36.7432 -173.732 1.0733 2.98755 0.633447 -1.97585 14.0148 -7.12249 -0.659354 -0.961475 -115.888 70.5261 122.421 -112.848 -43.9764 -131.499 118.769 -0.272656 -120.466 -73.3933 -26.0016 20.1153 1.62419 1.50024 -5.14713 79.6647 -20.0568 31.6777 46.3131 -49.4217 -36.8476 -59.2221 -18.9844 -3.48264 -24.3999 -2.49721 13.0294 -109.517 -0.185911 -17.4464 76.0768 21.4962 4.72493 44.3254 -5.00174 -8.57055 -143.364 8.66034 3.28434 87.8619 -10.1764 -7.7782 35.4847 -0.303665 -1.18082 -2.47731 5.31277 -44.66 14.5262 -9.91022 -34.489 
-1.4925932 0.4648280 0.4510613 -2.36945 6.92078 35.2859 -175.539 1.24035 -0.224678 2.08676 -1.65962 17.0837 -8.2564 0.751814 -2.4026 -117.8 69.9851 125.029 -113.117 -45.0078 -130.562 120.506 2.27215 -117.598 -70.6507 -17.3023 16.2565 -6.97231 2.07266 -9.2227 80.3984 -18.9509 30.6449 42.9102 -48.7339 -38.6122 -52.1092 -19.1704 -1.8282 -22.8485 -1.43285 10.0099 -105.972 -0.666304 -18.9498 71.3058 18.7419 4.69552 50.1045 -4.44251 -7.6171 -142.181 10.072 2.68962 76.057 -10.9667 -9.77942 43.0874 0.595609 -0.595208 -5.42389 5.13123 -37.2007 11.9834 -8.69798 -29.9187 
-1.5241967 0.4699110 0.4672999 -1.85324 9.81605 33.0543 -178.242 1.66541 -3.5224 3.80851 -0.927046 19.2782 -9.04017 1.6695 -3.57896 -118.89 69.5618 127.127 -113.403 -45.9254 -129.861 117.352 6.3647 -114.021 -64.43 -9.08522 12.4621 -6.70317 0.325111 -2.27975 81.2714 -17.84 30.2894 38.6255 -48.1794 -41.0048 -44.9265 -19.1994 0.0723407 -19.4082 0.240518 4.93762 -103.153 -1.47123 -19.9714 68.7028 14.3243 4.26442 53.1232 -3.57424 -6.52182 -140.114 11.5416 1.6803 64.0046 -12.0479 -12.2369 50.2216 1.75401 0.102841 -8.62265 3.45878 -28.7505 9.08009 -8.21219 -24.2126 
-1.5546453 0.4720000 0.4829503 -1.57192 11.5383 30.8419 179.392 1.75312 -5.34605 5.86743 -0.377631 19.2827 -9.81288 2.11617 -4.21082 -118.884 68.5045 128.674 -113.278 -46.4962 -128.79 119.74 2.59615 -115.641 -61.0776 -5.16502 7.23464 -10.1164 2.25433 -11.0487 81.4182 -17.6045 29.9586 34.8629 -47.498 -43.9473 -39.8389 -17.2168 1.32812 -13.7459 1.66607 -1.03667 -101.228 -2.01413 -19.7156 69.3077 10.0326 3.54929 53.9915 -2.85641 -5.717 -137.988 12.076 1.27676 55.6388 -12.3761 -14.2897 55.539 2.86752 0.693676 -10.702 1.92538 -20.7966 6.64774 -8.46085 -18.4944 
-1.5835289 0.4712350 0.4966717 -1.41850 11.9963 29.1644 177.8 1.44229 -5.19812 7.49425 -0.181964 16.7517 -10.442 1.9576 -3.87101 -117.91 67.1804 129.431 -112.605 -45.9699 -128.075 127.76 -6.19705 -120.013 -60.2962 1.64259 5.15484 -14.7519 2.44067 -12.0482 81.0664 -18.0765 30.251 34.7745 -45.6635 -45.278 -40.5383 -15.4043 1.48724 -5.74366 3.17079 -11.307 -101.013 -2.50633 -18.9041 71.7267 6.9342 2.79524 54.6413 -2.37254 -5.14704 -135.424 11.9907 0.565067 50.7468 -11.6557 -14.7219 57.5167 3.20808 0.823679 -11.6487 0.97347 -14.0747 5.09631 -9.00713 -13.2658 
-1.6110342 0.4671800 0.5070796 -1.45026 11.7590 27.9433 176.927 1.20689 -4.50629 8.30735 0.0162966 13.3075 -10.7541 1.10437 -2.48855 -116.21 66.1152 129.317 -112.278 -44.9586 -128.785 129.296 -13.2242 -122.574 -62.0046 7.02229 6.71069 -20.0466 1.89639 -10.632 80.3302 -19.2248 31.5635 39.1837 -46.458 -43 -53.0248 -8.20666 0.444613 10.198 1.05782 -22.4736 -103.526 -2.6663 -18.6197 77.8309 6.24933 1.92645 51.5273 -2.08601 -4.74921 -134.883 9.7391 -1.15511 51.9574 -13.2723 -12.1869 57.4569 3.26993 0.820608 -11.9516 0.550492 -8.30556 4.35159 -9.69053 -8.45291 
-1.6367052 0.4603670 0.5162128 -1.73325 10.9899 26.7333 176.746 1.16512 -4.06099 8.3438 0.32732 10.0346 -10.6333 -0.197727 -0.617302 -114.259 65.7974 128.456 -111.993 -43.1388 -130.833 129.168 -19.1855 -124.259 -64.3448 5.80125 6.69899 -21.2575 4.20683 -17.1952 79.3203 -20.9198 33.5542 37.798 -48.1999 -40.8984 -62.0428 -7.78252 -1.99782 20.2271 -1.50711 -37.5628 -108.594 -2.66079 -18.5089 87.2686 7.71323 1.05463 45.4655 -2.14558 -4.67928 -133.54 8.36577 -3.06689 58.4661 -13.6732 -9.41073 51.4771 2.70654 0.793436 -11.9063 0.660295 -2.52852 4.10402 -10.5866 -3.70005 
-1.6612298 0.4529170 0.5256697 -2.18855 9.93735 25.6496 177.191 1.38758 -3.7762 7.92669 0.835773 7.42162 -9.98788 -1.71891 1.41649 -112.801 66.4843 126.451 -111.87 -40.8558 -134.183 129.81 -23.9491 -125.766 -65.6317 8.20607 6.67548 -23.6635 5.23389 -19.8266 77.7893 -23.5659 36.1643 37.7921 -48.0072 -36.5922 -71.9444 -10.9008 -5.61836 25.0747 -4.60258 -60.3137 -115.061 -1.99532 -17.329 97.1404 8.44399 0.00781127 38.4231 -2.26442 -4.67535 -131.893 8.36997 -3.63888 67.9105 -12.4655 -8.21128 42.6291 1.8764 0.682064 -11.8112 1.22473 3.09733 4.41937 -11.7047 0.830278 
-1.6868251 0.4444180 0.5351632 -2.08559 8.39952 24.5590 177.613 1.4713 -3.90703 7.04719 1.12738 5.59011 -9.35242 -2.77268 2.945 -111.965 67.1445 124.804 -111.479 -38.0957 -138.068 129.619 -27.9621 -126.969 -65.8792 12.7079 6.30431 -27.5328 6.59849 -22.56 76.1675 -26.7108 39.2606 41.9834 -43.3733 -30.0785 -85.7164 -28.4316 -13.9642 3.98267 14.0805 -74.808 -122.555 -1.25165 -14.5209 105.985 9.45548 -0.921998 31.0439 -2.45639 -4.79166 -129.577 8.39356 -3.72222 73.4146 -9.06915 -7.48706 36.7073 1.01517 0.0936554 -12.3454 2.83105 8.23968 5.4284 -13.0886 5.50939 
-1.7120637 0.4388160 0.5442128 -1.65585 6.59929 23.3936 178.589 1.19625 -4.27931 5.35867 1.10158 3.66818 -8.70678 -3.5956 4.69917 -111.281 67.5176 123.959 -110.868 -35.0886 -142.392 126.667 -30.0992 -128.907 -66.0322 15.3246 6.20265 -30.3934 7.75327 -24.4712 75.035 -29.5477 42.5955 48.604 -37.6529 -31.2277 -93.556 -11.0595 -12.5341 17.7979 0.552361 -75.1398 -130.414 -1.07105 -11.6978 111.453 11.9133 -1.392 25.3187 -2.63998 -4.8276 -126.828 8.11016 -2.06637 77.8004 -9.99453 -7.67937 32.5836 1.19931 0.550862 -13.5949 5.12857 13.3284 6.60658 -14.8429 9.90515 
-1.7377436 0.4351230 0.5528351 -1.38787 4.65148 21.4764 -179.899 0.570832 -5.46797 3.35615 0.89587 1.61649 -7.98042 -4.84895 6.78238 -110.186 67.5802 122.447 -109.596 -31.9992 -145.72 124.262 -32.6453 -132.67 -65.8064 17.1482 6.59675 -32.5362 8.99026 -26.6136 74.1737 -32.0222 45.4162 54.5904 -29.4591 -34.6861 -98.8694 5.47549 -13.6242 26.0183 -6.40851 -63.114 -137.772 -1.64122 -9.53763 113.699 14.3864 -1.42256 23.6741 -2.62874 -4.53562 -123.718 6.75911 -0.895811 81.3848 -10.6366 -7.04624 30.049 1.3343 0.842834 -15.4046 7.65084 18.8545 7.74432 -17.1772 14.1824 
-1.7634308 0.4347260 0.5609102 -1.96111 2.53221 18.9882 -177.333 -0.311024 -7.01334 1.25391 0.632567 -0.409138 -7.13613 -6.29558 8.21201 -109.308 66.6318 120.431 -107.987 -29.395 -147.36 123.688 -36.6371 -137.523 -65.0032 17.5573 7.25358 -32.6704 9.37 -27.6031 73.1071 -34.3968 47.0191 59.4852 -20.1625 -39.7835 -98.7649 23.0822 -16.3918 35.4546 -9.85765 -43.9734 -142.687 -2.99477 -8.81886 112.124 16.2839 -0.932929 23.2388 -2.57241 -4.29914 -119.756 4.23493 -1.0299 84.3025 -9.80851 -5.30045 29.6063 1.23554 0.616237 -17.1682 10.0485 24.5614 8.74499 -20.0896 18.0832 
